<?xml version="1.0" standalone="no"?>
<!DOCTYPE svg PUBLIC "-//W3C//DTD SVG 20010904//EN"
 "http://www.w3.org/TR/2001/REC-SVG-20010904/DTD/svg10.dtd">
<svg version="1.0" xmlns="http://www.w3.org/2000/svg"
 width="1024.000000pt" height="1024.000000pt" viewBox="0 0 1024.000000 1024.000000"
 preserveAspectRatio="xMidYMid meet">

<g transform="translate(0.000000,1024.000000) scale(0.100000,-0.100000)"
fill="#FFA500" stroke="none">
<path d="M4981 8807 c-53 -52 -149 -137 -214 -191 -131 -108 -188 -175 -247
-288 -55 -106 -80 -207 -80 -330 0 -124 21 -220 71 -325 51 -107 112 -179 256
-301 65 -55 135 -122 155 -149 36 -48 108 -187 108 -209 0 -7 -25 -15 -62 -19
-190 -20 -377 -62 -537 -121 -624 -232 -1090 -810 -1176 -1461 -17 -127 -19
-392 -5 -513 33 -268 144 -575 286 -793 200 -307 432 -520 747 -687 l97 -52 0
-604 0 -603 -48 -21 c-176 -76 -230 -306 -107 -456 51 -62 140 -104 220 -104
153 0 295 137 295 285 l0 42 86 38 c116 52 134 67 134 115 0 29 -6 43 -22 54
-32 23 -41 21 -150 -30 l-97 -45 -32 36 c-17 20 -51 47 -75 61 l-44 26 1 191
0 192 27 -35 c56 -73 160 -166 222 -200 36 -19 99 -44 140 -56 l75 -22 3 -184
2 -185 -40 -18 c-45 -20 -99 -75 -126 -127 -9 -18 -19 -65 -22 -103 -6 -89 21
-156 82 -213 60 -55 120 -76 203 -70 78 6 133 30 179 80 55 58 69 95 69 183 0
67 -5 88 -27 131 -29 55 -72 97 -125 122 l-33 16 2 184 3 184 75 22 c41 12
104 37 140 56 63 34 168 128 223 200 l26 35 1 -196 0 -197 -24 -6 c-13 -3 -46
-26 -74 -51 -27 -25 -55 -45 -60 -45 -6 0 -48 18 -93 40 -46 22 -90 40 -99 40
-50 0 -89 -82 -56 -119 9 -10 59 -38 110 -62 l94 -44 5 -52 c11 -108 70 -193
169 -243 121 -60 248 -34 343 72 129 144 80 371 -99 458 l-43 20 -7 92 c-3 50
-6 320 -6 599 l0 509 111 55 c535 269 896 746 1024 1356 62 293 39 684 -56
979 -43 133 -156 357 -236 469 -123 172 -360 397 -512 487 l-31 18 0 171 0
171 55 23 c112 46 189 160 189 281 1 98 -26 164 -93 231 -65 65 -124 89 -216
89 -95 0 -150 -24 -221 -94 -71 -71 -94 -126 -94 -225 0 -117 71 -228 178
-277 l41 -19 1 -132 0 -132 -66 29 c-160 72 -396 131 -602 151 -141 14 -135 4
-75 125 45 91 90 143 225 260 183 158 253 252 300 404 19 62 23 97 22 200 0
147 -15 217 -74 335 -52 107 -125 191 -256 299 -60 49 -154 134 -210 188 -56
54 -107 98 -114 98 -7 0 -56 -42 -109 -93z m192 -272 c94 -24 157 -63 237
-144 166 -167 214 -390 130 -612 -28 -77 -74 -144 -143 -210 -55 -53 -206
-169 -221 -169 -4 0 -5 62 -4 137 l3 136 54 28 c119 62 174 150 174 280 0 92
-23 148 -87 217 -68 73 -124 97 -221 97 -64 -1 -90 -6 -130 -25 -62 -30 -126
-94 -157 -157 -33 -68 -32 -186 1 -261 27 -61 113 -144 166 -162 l35 -12 0
-139 c0 -160 9 -153 -100 -73 -153 111 -252 245 -285 385 -31 133 -10 306 52
422 41 78 155 186 235 225 105 51 171 61 261 37z m5 -427 c42 -26 65 -71 66
-130 0 -154 -209 -205 -281 -68 -27 51 -29 89 -7 135 20 43 44 64 91 80 44 16
85 10 131 -17z m930 -598 c121 -74 83 -264 -56 -278 -60 -5 -113 17 -145 62
-28 40 -30 129 -4 170 42 64 139 86 205 46z m-849 -690 c210 -19 425 -77 609
-165 562 -269 905 -788 929 -1405 24 -634 -279 -1248 -777 -1574 -299 -196
-666 -300 -994 -282 -600 33 -1154 403 -1426 955 -143 288 -213 637 -189 936
48 587 411 1124 924 1365 298 140 609 198 924 170z m-494 -3731 c83 -21 169
-44 193 -51 l42 -12 0 -120 0 -120 -47 45 c-79 75 -173 149 -199 155 -63 16
-106 -24 -79 -76 22 -42 209 -228 272 -270 l52 -35 1 -92 0 -93 -50 19 c-170
64 -291 203 -355 405 -25 76 -51 269 -39 287 6 10 6 10 209 -42z m861 -31
c-17 -199 -94 -387 -204 -497 -65 -64 -159 -122 -224 -137 l-28 -6 0 89 0 90
53 36 c59 41 242 220 263 258 17 30 18 71 2 87 -19 19 -72 14 -106 -10 -17
-13 -69 -58 -115 -100 -47 -43 -87 -78 -91 -78 -3 0 -6 52 -6 115 l0 114 78
25 c42 13 133 38 202 54 159 38 163 39 174 41 5 1 6 -34 2 -81z m-1115 -1074
c56 -28 78 -98 49 -161 -63 -142 -279 -57 -231 90 14 41 48 75 87 87 31 9 54
5 95 -16z m1290 -1 c83 -49 82 -175 -2 -219 -89 -46 -189 13 -189 111 0 98
107 158 191 108z m-668 -277 c95 -39 87 -177 -12 -207 -104 -31 -178 89 -109
176 34 44 70 53 121 31z"/>
<path d="M4617 5876 c-44 -16 -74 -40 -92 -77 -8 -14 -62 -151 -120 -305 -256
-672 -375 -996 -375 -1022 0 -67 78 -116 175 -110 75 5 122 35 147 95 9 21 26
59 37 86 l20 47 321 0 321 0 25 -57 c45 -106 59 -127 94 -151 31 -21 44 -23
117 -20 87 3 126 21 149 67 16 31 11 46 -116 376 -127 327 -307 794 -353 914
-36 94 -80 143 -144 160 -52 15 -160 13 -206 -3z m217 -783 c53 -127 96 -236
96 -242 0 -8 -62 -11 -195 -11 -114 0 -195 4 -195 9 0 5 38 106 85 223 104
260 105 261 109 257 2 -2 47 -108 100 -236z"/>
<path d="M5760 5868 c-24 -13 -53 -36 -64 -51 -21 -28 -21 -40 -24 -693 -3
-754 -9 -698 83 -740 95 -45 217 -23 269 49 21 28 21 38 21 686 0 631 -1 658
-19 686 -53 81 -174 110 -266 63z"/>
<path d="M4455 8768 c-31 -18 -44 -40 -45 -75 0 -76 92 -116 145 -62 71 73
-12 187 -100 137z"/>
<path d="M6318 8469 c-40 -20 -78 -80 -78 -120 0 -44 40 -109 81 -129 58 -30
111 -26 154 11 79 69 63 199 -29 243 -44 21 -82 20 -128 -5z"/>
<path d="M5973 8460 c-18 -10 -39 -33 -48 -49 -21 -43 -19 -119 5 -159 18 -29
20 -50 20 -181 0 -167 6 -181 71 -181 58 0 73 19 79 95 l5 66 70 -49 c115 -80
224 -204 284 -321 57 -112 67 -118 147 -106 43 6 45 8 40 31 -51 200 -254 445
-459 553 -32 17 -63 33 -68 37 -5 3 6 23 25 44 43 48 54 101 30 159 -29 73
-131 104 -201 61z"/>
<path d="M3533 8380 c-57 -34 -67 -73 -30 -116 27 -32 67 -35 117 -9 28 15 31
19 24 48 -4 18 -14 47 -22 64 -18 39 -42 42 -89 13z"/>
<path d="M6846 8348 c-35 -31 -42 -75 -17 -114 50 -81 173 -28 155 66 -13 64
-90 90 -138 48z"/>
<path d="M3143 8224 c-47 -17 -114 -77 -138 -125 -22 -42 -30 -125 -16 -175
16 -61 61 -115 122 -148 123 -68 265 -19 335 114 25 48 25 162 0 210 -59 112
-190 166 -303 124z m136 -180 c27 -34 27 -72 -1 -101 -46 -49 -128 -16 -128
52 0 72 86 104 129 49z"/>
<path d="M3911 8165 c-173 -49 -293 -180 -323 -354 -39 -228 118 -452 343
-491 38 -7 143 -10 251 -8 163 3 188 5 206 21 25 23 32 60 21 102 l-9 33 -228
4 c-250 4 -267 8 -338 70 -99 87 -113 252 -31 360 69 90 167 128 275 108 30
-5 68 -16 84 -25 27 -13 32 -13 54 2 52 34 60 99 18 132 -62 49 -229 72 -323
46z"/>
<path d="M6574 8160 c-11 -4 -33 -22 -47 -40 -35 -41 -37 -116 -7 -166 27 -43
98 -78 142 -69 70 15 118 71 118 138 0 81 -62 147 -138 146 -26 0 -56 -4 -68
-9z"/>
<path d="M7193 8060 c-44 -26 -56 -54 -50 -113 6 -67 47 -107 108 -107 77 0
129 49 129 122 -1 94 -105 148 -187 98z"/>
<path d="M6825 7846 c-96 -43 -116 -163 -40 -238 24 -24 36 -28 83 -28 66 0
113 25 136 74 43 91 -11 191 -111 202 -21 2 -52 -2 -68 -10z"/>
<path d="M7540 7811 c-47 -25 -85 -97 -76 -145 8 -41 46 -90 87 -111 58 -30
124 -13 172 45 38 45 44 90 17 144 -38 80 -123 108 -200 67z"/>
<path d="M2600 7772 c-92 -3 -120 -17 -120 -58 0 -62 38 -84 144 -84 89 0 120
12 137 53 10 24 10 34 -2 55 -18 32 -46 38 -159 34z"/>
<path d="M2953 7595 c-89 -19 -158 -59 -235 -137 l-68 -68 -74 12 c-132 20
-266 -25 -364 -123 -125 -125 -155 -318 -76 -484 33 -70 125 -156 201 -187
l58 -23 630 0 630 0 60 24 c83 34 173 124 205 206 52 136 21 291 -78 388 -70
68 -145 99 -258 105 l-92 5 -19 41 c-26 58 -137 167 -203 199 -58 28 -174 57
-225 56 -16 0 -58 -7 -92 -14z m194 -170 c60 -18 144 -89 174 -146 10 -21 22
-62 27 -91 l7 -53 155 -5 c171 -6 200 -14 241 -71 27 -38 36 -113 19 -164 -16
-47 -63 -101 -111 -126 -37 -18 -64 -19 -631 -19 -668 0 -637 -3 -710 78 -89
99 -74 264 33 355 52 45 105 61 182 54 56 -5 69 -11 155 -73 21 -16 24 -16 47
6 14 13 25 31 25 39 1 28 36 96 70 135 32 36 88 71 140 87 42 12 124 10 177
-6z"/>
<path d="M7175 7473 c-224 -35 -415 -171 -518 -370 -105 -204 -102 -382 9
-470 47 -37 152 -94 215 -118 44 -16 49 -21 93 -110 52 -106 140 -205 239
-270 l57 -38 0 -180 0 -179 -47 -52 c-212 -232 -164 -585 99 -723 l53 -28 243
-3 242 -3 0 68 c0 40 -5 74 -12 81 -8 8 -64 12 -188 12 -202 0 -254 11 -312
64 -61 56 -83 109 -83 201 0 61 5 91 22 127 28 61 104 137 168 168 46 23 60
25 181 23 l131 -1 22 53 c32 77 82 129 159 167 60 30 76 33 152 33 76 0 93 -3
152 -33 115 -56 186 -158 204 -291 6 -47 9 -51 48 -66 89 -36 140 -99 152
-189 13 -88 -45 -188 -134 -232 -33 -17 -68 -19 -299 -22 -236 -3 -263 -5
-267 -20 -5 -16 -9 -100 -7 -129 2 -20 540 -18 608 2 298 89 363 521 104 696
-45 30 -53 41 -67 92 -29 101 -111 210 -206 274 -207 140 -466 113 -650 -66
l-67 -66 -93 0 c-51 0 -108 -3 -125 -7 l-33 -7 0 127 c0 119 2 134 32 213 17
46 43 129 58 183 l26 100 67 22 c130 44 250 123 283 185 81 157 -12 433 -205
611 -72 67 -160 118 -252 146 -67 21 -200 34 -254 25z m10 -271 c0 -89 3 -113
20 -139 22 -38 42 -41 78 -13 34 27 47 76 47 179 l0 84 31 -7 c17 -3 50 -14
73 -24 l41 -19 14 -86 c14 -96 8 -130 -37 -201 -33 -54 -69 -85 -127 -112 -63
-30 -115 -31 -141 -3 -10 11 -32 26 -49 34 -36 14 -88 76 -110 129 -21 49 -15
220 8 243 10 10 110 42 132 43 19 0 20 -7 20 -108z m-307 -128 c5 -127 54
-219 148 -282 75 -50 116 -83 110 -90 -3 -3 -16 -1 -29 5 -120 58 -182 90
-240 125 -37 22 -82 41 -98 42 -29 1 -30 3 -25 34 7 44 61 151 98 196 16 20
30 36 31 36 1 0 3 -30 5 -66z m805 -11 c70 -108 97 -197 77 -258 -15 -45 -78
-100 -155 -136 -70 -33 -191 -62 -242 -57 l-34 3 31 62 c26 52 41 68 90 98
107 65 159 153 175 298 4 31 8 57 10 57 2 0 23 -30 48 -67z m-303 -614 c0 -9
-47 -142 -60 -171 -7 -16 -16 -28 -20 -28 -9 0 -56 35 -99 74 -30 28 -91 111
-91 125 0 4 61 6 135 6 74 0 135 -3 135 -6z"/>
<path d="M6524 7420 c-28 -11 -54 -48 -54 -76 0 -38 47 -84 85 -84 48 0 85 33
85 76 0 48 -14 70 -51 83 -37 13 -37 13 -65 1z"/>
<path d="M4587 7290 c-49 -39 -42 -116 14 -145 35 -19 53 -19 88 0 40 20 55
66 37 110 -24 57 -90 73 -139 35z"/>
<path d="M5504 7288 c-39 -18 -55 -79 -33 -120 13 -25 72 -50 96 -41 39 14 63
46 63 85 0 69 -63 107 -126 76z"/>
<path d="M4313 7140 c-62 -26 -68 -115 -10 -151 40 -25 84 -19 115 17 59 67
-21 170 -105 134z"/>
<path d="M6285 6955 c-35 -34 -34 -83 3 -118 57 -54 142 -19 142 58 0 25 -8
44 -25 60 -16 17 -35 25 -60 25 -25 0 -44 -8 -60 -25z"/>
<path d="M1810 6589 c-48 -10 -110 -78 -111 -121 -3 -76 15 -119 64 -149 47
-29 146 -23 183 11 41 39 57 78 51 128 -10 95 -93 152 -187 131z"/>
<path d="M8297 6568 c-40 -23 -77 -86 -77 -129 1 -39 35 -104 69 -128 118 -85
287 35 242 171 -6 19 -27 50 -46 68 -30 29 -43 34 -92 37 -46 3 -66 -1 -96
-19z"/>
<path d="M7745 6469 c-165 -83 -214 -228 -112 -336 42 -45 87 -59 125 -39 54
28 56 73 7 110 -64 49 -37 106 76 160 75 36 94 67 65 110 -24 37 -82 35 -161
-5z"/>
<path d="M6714 6446 c-72 -62 6 -179 89 -134 53 28 64 92 22 133 -31 32 -75
32 -111 1z"/>
<path d="M3382 6437 c-50 -53 -11 -141 63 -141 76 0 113 87 60 139 -33 34 -93
34 -123 2z"/>
<path d="M2260 6443 c-50 -18 -68 -84 -32 -116 16 -15 45 -17 194 -17 197 0
208 4 208 73 0 61 -20 67 -200 66 -85 0 -162 -3 -170 -6z"/>
<path d="M2920 6433 c-63 -23 -151 -113 -174 -178 -10 -27 -20 -84 -23 -125
-11 -155 47 -279 170 -356 l37 -24 0 -436 0 -435 -64 46 c-70 50 -158 89 -236
106 l-50 11 0 49 c0 72 -29 99 -105 99 -74 0 -95 -20 -95 -94 l0 -53 -66 -16
c-180 -45 -334 -167 -413 -329 -22 -45 -46 -105 -52 -133 -7 -27 -13 -56 -15
-62 -2 -8 -21 -13 -48 -13 -60 0 -77 -25 -79 -116 -1 -79 12 -94 83 -94 l45 0
12 -52 c24 -103 80 -196 178 -293 98 -99 169 -141 288 -172 l67 -18 0 -46 c0
-67 22 -90 85 -91 92 -2 115 19 115 102 0 35 3 39 33 45 70 14 164 50 212 80
82 52 190 176 235 269 21 45 44 102 50 127 12 46 12 47 61 53 59 8 69 23 69
106 0 83 -9 97 -69 105 l-49 7 -16 65 c-9 36 -25 82 -36 103 -19 37 -19 38 0
43 20 5 20 17 20 520 l0 514 38 25 c59 40 103 89 130 148 22 46 27 73 30 165
3 94 1 118 -17 166 -29 78 -83 136 -155 170 -70 33 -126 36 -196 12z m171
-192 l39 -39 0 -95 c0 -88 -2 -98 -26 -126 -14 -17 -43 -36 -64 -42 -32 -10
-44 -9 -76 7 -58 29 -78 63 -82 144 -5 91 2 117 44 157 29 27 43 33 81 33 39
0 50 -5 84 -39z m-502 -1366 c196 -47 345 -210 374 -410 30 -207 -82 -414
-277 -511 -73 -36 -84 -38 -189 -42 -94 -3 -121 0 -171 17 -158 56 -290 199
-325 352 -6 24 -11 78 -11 120 -1 313 293 546 599 474z"/>
<path d="M2358 4731 c-108 -43 -183 -115 -219 -210 -16 -44 -20 -73 -17 -136
6 -142 79 -254 207 -314 47 -22 70 -26 146 -26 77 0 98 4 147 27 79 37 142 98
181 177 29 59 32 75 32 151 -1 70 -5 94 -27 140 -38 81 -89 134 -166 172 -57
28 -78 33 -152 36 -64 1 -96 -3 -132 -17z m225 -177 c24 -17 53 -50 67 -77 24
-45 24 -48 8 -74 -26 -44 -109 -83 -177 -83 -88 1 -191 61 -191 113 0 24 33
88 57 109 62 56 165 61 236 12z"/>
<path d="M1550 6152 c-25 -21 -36 -85 -21 -124 l11 -28 185 0 185 0 0 -217 c0
-120 -3 -228 -6 -240 -6 -22 -11 -23 -120 -23 l-114 0 0 110 0 109 68 3 67 3
0 55 0 55 -55 3 c-44 2 -60 8 -79 28 -20 22 -29 25 -69 19 -26 -3 -52 -11 -59
-17 -10 -8 -13 -68 -13 -254 0 -207 2 -245 16 -258 13 -14 50 -16 245 -16
l229 0 0 -65 c0 -38 -6 -78 -14 -94 -8 -15 -71 -78 -140 -140 -69 -62 -126
-119 -126 -127 0 -27 28 -69 55 -84 23 -12 29 -12 49 1 47 29 304 263 315 286
6 13 11 69 11 123 l0 100 114 0 c167 0 155 -20 158 277 2 177 0 245 -9 254 -6
6 -34 14 -61 17 -42 4 -53 1 -73 -19 -17 -17 -37 -24 -79 -27 l-57 -4 -2 -59
-2 -58 68 -3 68 -3 3 -106 3 -106 -38 -7 c-21 -3 -73 -6 -115 -6 l-78 0 0 245
0 245 118 0 c118 0 119 0 130 -25 7 -14 12 -32 12 -40 0 -8 7 -15 15 -15 8 0
15 9 15 20 0 14 7 20 21 20 69 0 92 166 28 200 -10 6 -184 10 -427 10 -376 0
-412 -1 -432 -18z"/>
<path d="M8572 6150 c-47 -19 -44 -102 4 -120 75 -29 125 82 55 119 -23 13
-28 13 -59 1z"/>
<path d="M7006 5999 c-39 -31 -37 -88 5 -123 40 -34 74 -33 110 3 31 31 36 59
17 94 -26 50 -86 62 -132 26z"/>
<path d="M2698 5377 c-34 -16 -48 -28 -48 -42 0 -31 43 -99 72 -112 34 -17 81
-1 97 33 9 21 6 34 -19 84 -17 33 -36 60 -43 59 -6 0 -33 -11 -59 -22z"/>
<path d="M1446 5208 c-9 -12 -16 -32 -16 -43 0 -11 7 -31 16 -43 14 -21 23
-22 133 -22 132 0 151 9 151 68 0 55 -18 62 -150 62 -111 0 -120 -1 -134 -22z"/>
<path d="M7888 5003 c12 -2 30 -2 40 0 9 3 -1 5 -23 4 -22 0 -30 -2 -17 -4z"/>
<path d="M1495 4798 c-52 -28 -62 -92 -20 -133 52 -53 145 -16 145 57 -1 66
-68 108 -125 76z"/>
<path d="M7073 4755 c-36 -25 -46 -78 -40 -194 7 -121 25 -200 67 -288 81
-176 235 -315 423 -385 70 -26 100 -31 207 -36 106 -4 139 -1 209 17 248 62
426 229 514 478 27 78 31 104 35 225 l4 137 -30 31 -30 30 -669 0 c-579 0
-671 -2 -690 -15z m214 -217 c27 -130 106 -248 218 -323 156 -103 359 -102
522 4 116 75 212 235 213 354 0 25 3 27 45 27 44 0 45 0 45 -33 0 -53 -35
-178 -72 -253 -83 -172 -295 -304 -486 -304 -89 0 -156 17 -251 62 -186 89
-321 289 -321 476 0 50 1 51 33 54 17 2 34 2 37 0 2 -2 10 -30 17 -64z m801
41 c2 -15 -13 -56 -35 -99 -142 -276 -528 -229 -611 74 -6 22 -9 43 -6 48 3 4
150 7 327 6 l322 -3 3 -26z"/>
<path d="M8645 4745 c-37 -36 -34 -86 6 -119 60 -51 139 -17 139 59 0 76 -92
114 -145 60z"/>
<path d="M8610 4462 c-16 -13 -25 -38 -36 -98 -47 -275 -222 -551 -421 -665
-83 -48 -100 -84 -62 -133 29 -37 70 -34 149 12 84 48 225 187 285 280 104
162 180 366 192 513 5 72 4 77 -18 92 -30 22 -61 21 -89 -1z"/>
<path d="M6860 4011 c-124 -40 -208 -134 -229 -257 -44 -247 200 -445 431
-350 214 88 273 338 122 514 -51 61 -129 95 -223 98 -42 2 -87 0 -101 -5z
m166 -177 c46 -22 74 -70 74 -128 0 -149 -173 -220 -269 -111 -73 84 -41 213
64 250 44 16 79 13 131 -11z"/>
<path d="M3355 3988 c-11 -6 -22 -13 -25 -15 -2 -2 -7 -34 -10 -71 -6 -62 -4
-70 22 -106 37 -52 38 -103 1 -146 -23 -28 -26 -40 -24 -92 2 -67 20 -102 62
-124 36 -18 63 -18 105 2 48 23 81 84 95 175 10 63 9 87 -5 159 -22 108 -59
186 -100 211 -34 21 -90 24 -121 7z"/>
<path d="M1778 3911 c-25 -16 -49 -34 -53 -41 -21 -33 175 -264 262 -309 76
-38 123 -19 123 51 0 32 -6 41 -49 72 -57 42 -170 160 -207 216 -15 22 -27 40
-28 40 -1 0 -23 -13 -48 -29z"/>
<path d="M7619 3689 c-179 -26 -301 -209 -256 -382 26 -100 92 -173 195 -218
l42 -18 0 -204 c0 -192 1 -206 21 -231 16 -20 29 -26 59 -26 30 0 43 6 59 26
20 25 21 39 21 235 l0 208 43 19 c23 10 62 40 85 66 113 123 121 282 21 412
-66 87 -177 130 -290 113z m129 -179 c44 -27 76 -98 67 -149 -16 -84 -103
-143 -181 -122 -22 6 -55 26 -74 45 -43 46 -53 122 -21 174 44 70 140 94 209
52z"/>
<path d="M3716 3677 c-17 -12 -18 -24 -14 -103 9 -158 66 -242 210 -308 93
-44 135 -78 159 -131 17 -36 19 -71 19 -358 0 -351 -1 -358 -62 -395 -18 -11
-51 -25 -73 -32 -58 -18 -129 -55 -223 -116 -119 -77 -178 -105 -236 -111 -70
-7 -129 11 -177 54 -34 30 -69 80 -69 96 0 2 30 7 68 10 86 8 158 30 252 75
108 53 204 149 342 343 62 88 114 164 116 169 5 14 -195 216 -267 270 -79 58
-212 123 -296 145 -32 8 -101 15 -152 15 l-93 0 -2 53 c-1 28 -2 59 -4 67 -1
8 -2 56 -3 107 l-1 91 -75 4 -76 3 3 -660 c3 -656 3 -660 26 -719 34 -90 65
-137 130 -198 140 -129 329 -129 522 1 33 22 60 36 60 33 0 -4 -7 -29 -15 -56
-9 -29 -15 -89 -15 -146 0 -115 13 -135 83 -134 61 2 73 23 79 141 8 139 26
173 159 303 164 161 154 122 154 575 l0 380 -32 66 c-44 88 -112 150 -219 201
-93 43 -124 77 -124 136 0 18 -6 47 -14 65 -23 56 -102 92 -140 64z m-287
-582 c43 -14 105 -43 138 -64 58 -39 110 -87 102 -95 -8 -8 -427 -206 -436
-206 -4 0 -9 88 -10 195 l-2 195 64 0 c41 0 93 -9 144 -25z m170 -428 l-21
-44 -137 -36 c-159 -43 -211 -47 -211 -17 0 13 9 21 28 25 99 21 208 53 272
81 41 18 78 33 82 33 4 1 -2 -18 -13 -42z"/>
<path d="M6394 3671 c-47 -28 -71 -65 -78 -120 -3 -27 -16 -61 -27 -75 -11
-14 -65 -49 -120 -77 -111 -57 -161 -105 -206 -198 l-28 -56 0 -380 c0 -444
-2 -434 107 -534 174 -159 198 -200 198 -345 0 -68 4 -88 20 -109 39 -49 123
-42 138 12 17 60 4 217 -23 284 -5 12 17 2 69 -32 103 -67 161 -86 266 -86 75
0 93 4 153 32 112 53 198 161 226 284 6 26 11 236 11 521 l0 477 -22 15 c-18
13 -51 16 -158 16 -279 0 -432 -69 -645 -292 -63 -66 -115 -127 -115 -135 0
-18 86 -173 143 -258 59 -88 182 -206 257 -247 85 -47 182 -76 280 -84 44 -4
80 -10 80 -14 0 -11 -51 -83 -69 -98 -35 -29 -98 -52 -143 -52 -69 0 -136 29
-262 114 -61 41 -143 87 -181 101 -120 46 -136 55 -156 99 -17 37 -19 71 -19
342 0 198 4 313 11 335 19 55 77 107 174 156 154 76 204 146 213 303 5 97 -3
120 -42 120 -11 0 -35 -9 -52 -19z m538 -603 c2 -29 2 -118 0 -198 l-3 -145
-207 102 c-114 57 -211 105 -217 107 -16 7 84 92 148 126 63 34 155 58 229 59
l47 1 3 -52z m-141 -448 c41 -12 81 -24 89 -27 8 -4 24 -5 35 -5 18 2 17 1 -2
-8 -28 -12 -30 -24 -3 -17 11 3 20 1 20 -4 0 -22 -133 -3 -267 37 -85 25 -97
36 -117 101 -6 20 -1 19 82 -17 49 -21 122 -48 163 -60z"/>
<path d="M2298 3529 c-75 -21 -147 -106 -162 -192 -22 -123 100 -257 233 -257
45 0 128 39 163 76 124 133 36 359 -147 378 -27 3 -66 0 -87 -5z m106 -175
c20 -19 21 -68 2 -83 -25 -21 -79 -9 -95 20 -13 24 -13 29 2 53 20 30 66 35
91 10z"/>
<path d="M7287 3003 c-4 -3 -7 -91 -7 -194 0 -208 -3 -199 70 -199 73 0 70 -9
70 200 0 162 -2 189 -16 194 -21 8 -109 8 -117 -1z"/>
<path d="M2434 2876 c-95 -42 -108 -173 -22 -226 115 -70 248 61 178 175 -21
34 -73 65 -107 65 -10 -1 -32 -7 -49 -14z"/>
<path d="M2757 2469 c-11 -6 -25 -26 -33 -45 -17 -40 -7 -72 32 -103 49 -38
106 -23 130 36 17 39 11 68 -19 101 -22 24 -78 30 -110 11z"/>
<path d="M7332 2473 c-7 -3 -19 -18 -28 -35 -50 -97 68 -180 146 -103 55 56
13 146 -68 144 -20 0 -43 -3 -50 -6z"/>
</g>
</svg>
